<svg width="30" height="30" viewBox="0 0 30 30" fill="none" xmlns="http://www.w3.org/2000/svg">
<path d="M15 0C11.0218 0 7.20644 1.58035 4.3934 4.3934C1.58035 7.20644 0 11.0218 0 15C0 18.9782 1.58035 22.7936 4.3934 25.6066C7.20644 28.4196 11.0218 30 15 30C18.9782 30 22.7936 28.4196 25.6066 25.6066C28.4196 22.7936 30 18.9782 30 15C30 11.0218 28.4196 7.20644 25.6066 4.3934C22.7936 1.58035 18.9782 0 15 0Z" fill="#1877F2"/>
<path d="M17.0305 18.9753H20.9124L21.5218 15.0319H17.0297V12.8766C17.0297 11.2385 17.565 9.78584 19.0974 9.78584H21.5597V6.34452C21.1271 6.2861 20.2121 6.1582 18.4831 6.1582C14.8729 6.1582 12.7563 8.06478 12.7563 12.4085V15.0319H9.04498V18.9753H12.7563V29.814C13.4913 29.9245 14.2358 29.9995 15 29.9995C15.6908 29.9995 16.365 29.9364 17.0305 29.8464V18.9753Z" fill="white"/>
</svg>
